<svg width="200" height="200" viewBox="0 0 200 200" xmlns="http://www.w3.org/2000/svg">
  <defs>
    <radialGradient id="bg" cx="38%" cy="30%" r="65%">
      <stop offset="0%" stop-color="#F0A855"/>
      <stop offset="65%" stop-color="#BF6F2E"/>
      <stop offset="100%" stop-color="#7A3510"/>
    </radialGradient>
    <filter id="sh"><feDropShadow dx="0" dy="4" stdDeviation="5" flood-color="#00000070"/></filter>
    <clipPath id="cc"><circle cx="100" cy="100" r="82"/></clipPath>
  </defs>
  <circle cx="100" cy="103" r="93" fill="#170800" filter="url(#sh)"/>
  <circle cx="100" cy="100" r="93" fill="#170800"/>
  <circle cx="100" cy="100" r="90" fill="none" stroke="#FFD700" stroke-width="2.5"/>
  <circle cx="100.0" cy="9.5" r="2.2" fill="#FFD700"/>
  <circle cx="128.0" cy="13.9" r="2.2" fill="#FFD700"/>
  <circle cx="153.2" cy="26.8" r="2.2" fill="#FFD700"/>
  <circle cx="173.2" cy="46.8" r="2.2" fill="#FFD700"/>
  <circle cx="186.1" cy="72.0" r="2.2" fill="#FFD700"/>
  <circle cx="190.5" cy="100.0" r="2.2" fill="#FFD700"/>
  <circle cx="186.1" cy="128.0" r="2.2" fill="#FFD700"/>
  <circle cx="173.2" cy="153.2" r="2.2" fill="#FFD700"/>
  <circle cx="153.2" cy="173.2" r="2.2" fill="#FFD700"/>
  <circle cx="128.0" cy="186.1" r="2.2" fill="#FFD700"/>
  <circle cx="100.0" cy="190.5" r="2.2" fill="#FFD700"/>
  <circle cx="72.0" cy="186.1" r="2.2" fill="#FFD700"/>
  <circle cx="46.8" cy="173.2" r="2.2" fill="#FFD700"/>
  <circle cx="26.8" cy="153.2" r="2.2" fill="#FFD700"/>
  <circle cx="13.9" cy="128.0" r="2.2" fill="#FFD700"/>
  <circle cx="9.5" cy="100.0" r="2.2" fill="#FFD700"/>
  <circle cx="13.9" cy="72.0" r="2.2" fill="#FFD700"/>
  <circle cx="26.8" cy="46.8" r="2.2" fill="#FFD700"/>
  <circle cx="46.8" cy="26.8" r="2.2" fill="#FFD700"/>
  <circle cx="72.0" cy="13.9" r="2.2" fill="#FFD700"/>
  <circle cx="100" cy="100" r="83.5" fill="none" stroke="#FFD700" stroke-width="1.5"/>
  <circle cx="100" cy="100" r="82" fill="url(#bg)"/>
  <ellipse cx="86" cy="72" rx="32" ry="20" fill="rgba(255,255,255,0.13)" clip-path="url(#cc)"/>
  <g stroke-linecap="round" stroke-linejoin="round">

    <circle cx="122" cy="68" r="13" fill="white"/>
    <line x1="122" y1="49" x2="122" y2="43" stroke="white" stroke-width="3.2" stroke-linecap="round"/>
    <line x1="136" y1="54" x2="141" y2="49" stroke="white" stroke-width="3.2" stroke-linecap="round"/>
    <line x1="141" y1="68" x2="147" y2="68" stroke="white" stroke-width="3.2" stroke-linecap="round"/>
    <line x1="136" y1="82" x2="141" y2="87" stroke="white" stroke-width="3.2" stroke-linecap="round"/>
    <line x1="108" y1="82" x2="103" y2="87" stroke="white" stroke-width="3.2" stroke-linecap="round"/>
    <path d="M 80 132 Q 82 104 91 85" fill="none" stroke="white" stroke-width="5" stroke-linecap="round"/>
    <path d="M 91 85 Q 73 72 62 79" fill="none" stroke="white" stroke-width="3.5" stroke-linecap="round"/>
    <path d="M 91 85 Q 80 70 87 61" fill="none" stroke="white" stroke-width="3.5" stroke-linecap="round"/>
    <path d="M 91 85 Q 101 68 111 75" fill="none" stroke="white" stroke-width="3.5" stroke-linecap="round"/>
    <path d="M 91 85 Q 106 78 110 87" fill="none" stroke="white" stroke-width="3.5" stroke-linecap="round"/>
    <path d="M 55 118 Q 66 111 77 118 Q 88 125 99 118 Q 110 111 121 118 Q 132 125 141 118" fill="none" stroke="white" stroke-width="3" stroke-linecap="round"/>
    <path d="M 58 130 Q 69 123 80 130 Q 91 137 102 130 Q 113 123 122 130" fill="none" stroke="white" stroke-width="2.5" stroke-linecap="round"/>
  </g>
  <path d="M 22 150 A 81 81 0 0 0 178 150 L 181 173 A 85 85 0 0 1 19 173 Z" fill="#170800"/>
  <line x1="22" y1="150" x2="178" y2="150" stroke="#FFD700" stroke-width="1.5"/>
  <path d="M 19 173 Q 100 181 181 173" fill="none" stroke="#FFD700" stroke-width="1.5"/>
  <text x="100" y="163" text-anchor="middle" fill="#FFD700" font-family="Arial Black,Impact,sans-serif" font-size="11" font-weight="900" letter-spacing="0.8">BEACH BUM</text>
</svg>