<svg width="400" height="400" viewBox="0 0 400 400" xmlns="http://www.w3.org/2000/svg">
  <defs>
    <radialGradient id="bgG_night_owl" cx="36%" cy="28%" r="68%">
      <stop offset="0%" stop-color="#F5B060"/>
      <stop offset="35%" stop-color="#D07828"/>
      <stop offset="70%" stop-color="#8F4210"/>
      <stop offset="100%" stop-color="#4A1A04"/>
    </radialGradient>
    <radialGradient id="sheenG_night_owl" cx="32%" cy="22%" r="62%">
      <stop offset="0%" stop-color="rgba(255,255,255,0.22)"/>
      <stop offset="100%" stop-color="rgba(255,255,255,0)"/>
    </radialGradient>
    <linearGradient id="goldG_night_owl" x1="0%" y1="0%" x2="0%" y2="100%">
      <stop offset="0%" stop-color="#FFE87A"/>
      <stop offset="45%" stop-color="#FFD700"/>
      <stop offset="100%" stop-color="#A07808"/>
    </linearGradient>
    <filter id="shF_night_owl" x="-25%" y="-25%" width="150%" height="150%">
      <feDropShadow dx="0" dy="10" stdDeviation="14" flood-color="#000000" flood-opacity="0.7"/>
    </filter>
    <filter id="innerGlow_night_owl">
      <feGaussianBlur in="SourceGraphic" stdDeviation="3" result="blur"/>
      <feComposite in="SourceGraphic" in2="blur" operator="over"/>
    </filter>
    <clipPath id="ccG_night_owl"><circle cx="200" cy="200" r="165"/></clipPath>
  </defs>

  <!-- Shadow -->
  <circle cx="200" cy="212" r="190" fill="#050200" filter="url(#shF_night_owl)"/>
  <!-- Outermost dark ring -->
  <circle cx="200" cy="200" r="196" fill="#0A0300"/>
  <circle cx="200" cy="200" r="190" fill="#140600"/>
  <!-- Gold outer ring -->
  <circle cx="200" cy="200" r="182" fill="none" stroke="url(#goldG_night_owl)" stroke-width="5.5"/>
  <!-- Dots -->
  <circle cx="200.0" cy="20.0" r="4.5" fill="url(#goldGnight_owl)"/><circle cx="246.6" cy="26.1" r="4.5" fill="url(#goldGnight_owl)"/><circle cx="290.0" cy="44.1" r="4.5" fill="url(#goldGnight_owl)"/><circle cx="327.3" cy="72.7" r="4.5" fill="url(#goldGnight_owl)"/><circle cx="355.9" cy="110.0" r="4.5" fill="url(#goldGnight_owl)"/><circle cx="373.9" cy="153.4" r="4.5" fill="url(#goldGnight_owl)"/><circle cx="380.0" cy="200.0" r="4.5" fill="url(#goldGnight_owl)"/><circle cx="373.9" cy="246.6" r="4.5" fill="url(#goldGnight_owl)"/><circle cx="355.9" cy="290.0" r="4.5" fill="url(#goldGnight_owl)"/><circle cx="327.3" cy="327.3" r="4.5" fill="url(#goldGnight_owl)"/><circle cx="290.0" cy="355.9" r="4.5" fill="url(#goldGnight_owl)"/><circle cx="246.6" cy="373.9" r="4.5" fill="url(#goldGnight_owl)"/><circle cx="200.0" cy="380.0" r="4.5" fill="url(#goldGnight_owl)"/><circle cx="153.4" cy="373.9" r="4.5" fill="url(#goldGnight_owl)"/><circle cx="110.0" cy="355.9" r="4.5" fill="url(#goldGnight_owl)"/><circle cx="72.7" cy="327.3" r="4.5" fill="url(#goldGnight_owl)"/><circle cx="44.1" cy="290.0" r="4.5" fill="url(#goldGnight_owl)"/><circle cx="26.1" cy="246.6" r="4.5" fill="url(#goldGnight_owl)"/><circle cx="20.0" cy="200.0" r="4.5" fill="url(#goldGnight_owl)"/><circle cx="26.1" cy="153.4" r="4.5" fill="url(#goldGnight_owl)"/><circle cx="44.1" cy="110.0" r="4.5" fill="url(#goldGnight_owl)"/><circle cx="72.7" cy="72.7" r="4.5" fill="url(#goldGnight_owl)"/><circle cx="110.0" cy="44.1" r="4.5" fill="url(#goldGnight_owl)"/><circle cx="153.4" cy="26.1" r="4.5" fill="url(#goldGnight_owl)"/>
  <!-- Inner gold ring -->
  <circle cx="200" cy="200" r="169" fill="none" stroke="url(#goldG_night_owl)" stroke-width="2.5"/>
  <!-- Main badge fill -->
  <circle cx="200" cy="200" r="166" fill="url(#bgG_night_owl)"/>
  <!-- Sheen overlay -->
  <circle cx="200" cy="200" r="166" fill="url(#sheenG_night_owl)" clip-path="url(#ccG_night_owl)"/>

  <!-- ── ICON ── -->
  
  <g stroke-linecap="round" stroke-linejoin="round">
    <ellipse cx="200" cy="188" rx="62" ry="66" fill="rgba(255,255,255,0.86)"/>
    <polygon points="160,147 152,122 178,140" fill="rgba(255,255,255,0.92)"/>
    <polygon points="240,147 248,122 222,140" fill="rgba(255,255,255,0.92)"/>
    <circle cx="178" cy="178" r="23" fill="rgba(100,50,10,0.82)"/>
    <circle cx="222" cy="178" r="23" fill="rgba(100,50,10,0.82)"/>
    <circle cx="178" cy="178" r="14" fill="rgba(20,10,2,0.9)"/>
    <circle cx="222" cy="178" r="14" fill="rgba(20,10,2,0.9)"/>
    <circle cx="172" cy="172" r="5.5" fill="white"/>
    <circle cx="216" cy="172" r="5.5" fill="white"/>
    <path d="M 184 198 Q 200 192 216 198 L 208 210 Q 200 217 192 210 Z" fill="rgba(180,100,20,0.75)"/>
    <path d="M 140 218 Q 163 232 180 222" stroke="rgba(255,255,255,0.4)" stroke-width="3.5" fill="none"/>
    <path d="M 260 218 Q 237 232 220 222" stroke="rgba(255,255,255,0.4)" stroke-width="3.5" fill="none"/>
    <circle cx="148" cy="152" r="4.5" fill="rgba(255,255,255,0.72)"/>
    <line x1="148" y1="143" x2="148" y2="161" stroke="rgba(255,255,255,0.5)" stroke-width="2.5"/>
    <line x1="139" y1="152" x2="157" y2="152" stroke="rgba(255,255,255,0.5)" stroke-width="2.5"/>
    <circle cx="260" cy="155" r="3.5" fill="rgba(255,255,255,0.6)"/>
    <circle cx="145" cy="205" r="3" fill="rgba(255,255,255,0.45)"/>
    <circle cx="262" cy="198" r="3" fill="rgba(255,255,255,0.45)"/>
  </g>

  <!-- Banner -->
  <path d="M 65 306 A 164 164 0 0 0 335 306 L 341 352 A 172 172 0 0 1 59 352 Z" fill="#100400"/>
  <line x1="65" y1="306" x2="335" y2="306" stroke="url(#goldG_night_owl)" stroke-width="3.5"/>
  <path d="M 59 352 Q 200 366 341 352" fill="none" stroke="url(#goldG_night_owl)" stroke-width="3.5"/>
  <text x="200" y="334" text-anchor="middle" fill="url(#goldG_night_owl)"
        font-family="Arial Black,Impact,sans-serif"
        font-size="22" font-weight="900" letter-spacing="2">NIGHT OWL</text>
</svg>