<svg width="400" height="400" viewBox="0 0 400 400" xmlns="http://www.w3.org/2000/svg">
  <defs>
    <radialGradient id="bgG_perfect_timing" cx="36%" cy="28%" r="68%">
      <stop offset="0%" stop-color="#F5B060"/>
      <stop offset="35%" stop-color="#D07828"/>
      <stop offset="70%" stop-color="#8F4210"/>
      <stop offset="100%" stop-color="#4A1A04"/>
    </radialGradient>
    <radialGradient id="sheenG_perfect_timing" cx="32%" cy="22%" r="62%">
      <stop offset="0%" stop-color="rgba(255,255,255,0.22)"/>
      <stop offset="100%" stop-color="rgba(255,255,255,0)"/>
    </radialGradient>
    <linearGradient id="goldG_perfect_timing" x1="0%" y1="0%" x2="0%" y2="100%">
      <stop offset="0%" stop-color="#FFE87A"/>
      <stop offset="45%" stop-color="#FFD700"/>
      <stop offset="100%" stop-color="#A07808"/>
    </linearGradient>
    <filter id="shF_perfect_timing" x="-25%" y="-25%" width="150%" height="150%">
      <feDropShadow dx="0" dy="10" stdDeviation="14" flood-color="#000000" flood-opacity="0.7"/>
    </filter>
    <filter id="innerGlow_perfect_timing">
      <feGaussianBlur in="SourceGraphic" stdDeviation="3" result="blur"/>
      <feComposite in="SourceGraphic" in2="blur" operator="over"/>
    </filter>
    <clipPath id="ccG_perfect_timing"><circle cx="200" cy="200" r="165"/></clipPath>
  </defs>

  <!-- Shadow -->
  <circle cx="200" cy="212" r="190" fill="#050200" filter="url(#shF_perfect_timing)"/>
  <!-- Outermost dark ring -->
  <circle cx="200" cy="200" r="196" fill="#0A0300"/>
  <circle cx="200" cy="200" r="190" fill="#140600"/>
  <!-- Gold outer ring -->
  <circle cx="200" cy="200" r="182" fill="none" stroke="url(#goldG_perfect_timing)" stroke-width="5.5"/>
  <!-- Dots -->
  <circle cx="200.0" cy="20.0" r="4.5" fill="url(#goldGperfect_timing)"/><circle cx="246.6" cy="26.1" r="4.5" fill="url(#goldGperfect_timing)"/><circle cx="290.0" cy="44.1" r="4.5" fill="url(#goldGperfect_timing)"/><circle cx="327.3" cy="72.7" r="4.5" fill="url(#goldGperfect_timing)"/><circle cx="355.9" cy="110.0" r="4.5" fill="url(#goldGperfect_timing)"/><circle cx="373.9" cy="153.4" r="4.5" fill="url(#goldGperfect_timing)"/><circle cx="380.0" cy="200.0" r="4.5" fill="url(#goldGperfect_timing)"/><circle cx="373.9" cy="246.6" r="4.5" fill="url(#goldGperfect_timing)"/><circle cx="355.9" cy="290.0" r="4.5" fill="url(#goldGperfect_timing)"/><circle cx="327.3" cy="327.3" r="4.5" fill="url(#goldGperfect_timing)"/><circle cx="290.0" cy="355.9" r="4.5" fill="url(#goldGperfect_timing)"/><circle cx="246.6" cy="373.9" r="4.5" fill="url(#goldGperfect_timing)"/><circle cx="200.0" cy="380.0" r="4.5" fill="url(#goldGperfect_timing)"/><circle cx="153.4" cy="373.9" r="4.5" fill="url(#goldGperfect_timing)"/><circle cx="110.0" cy="355.9" r="4.5" fill="url(#goldGperfect_timing)"/><circle cx="72.7" cy="327.3" r="4.5" fill="url(#goldGperfect_timing)"/><circle cx="44.1" cy="290.0" r="4.5" fill="url(#goldGperfect_timing)"/><circle cx="26.1" cy="246.6" r="4.5" fill="url(#goldGperfect_timing)"/><circle cx="20.0" cy="200.0" r="4.5" fill="url(#goldGperfect_timing)"/><circle cx="26.1" cy="153.4" r="4.5" fill="url(#goldGperfect_timing)"/><circle cx="44.1" cy="110.0" r="4.5" fill="url(#goldGperfect_timing)"/><circle cx="72.7" cy="72.7" r="4.5" fill="url(#goldGperfect_timing)"/><circle cx="110.0" cy="44.1" r="4.5" fill="url(#goldGperfect_timing)"/><circle cx="153.4" cy="26.1" r="4.5" fill="url(#goldGperfect_timing)"/>
  <!-- Inner gold ring -->
  <circle cx="200" cy="200" r="169" fill="none" stroke="url(#goldG_perfect_timing)" stroke-width="2.5"/>
  <!-- Main badge fill -->
  <circle cx="200" cy="200" r="166" fill="url(#bgG_perfect_timing)"/>
  <!-- Sheen overlay -->
  <circle cx="200" cy="200" r="166" fill="url(#sheenG_perfect_timing)" clip-path="url(#ccG_perfect_timing)"/>

  <!-- ── ICON ── -->
  
  <g stroke-linecap="round" stroke-linejoin="round">
    <circle cx="200" cy="184" r="68" fill="rgba(255,255,255,0.1)" stroke="white" stroke-width="5.5"/>
    <line x1="200" y1="119" x2="200" y2="133" stroke="white" stroke-width="7" stroke-linecap="round"/>
    <line x1="268" y1="184" x2="254" y2="184" stroke="white" stroke-width="7" stroke-linecap="round"/>
    <line x1="200" y1="249" x2="200" y2="235" stroke="white" stroke-width="7" stroke-linecap="round"/>
    <line x1="132" y1="184" x2="146" y2="184" stroke="white" stroke-width="7" stroke-linecap="round"/>
    <line x1="234" y1="127" x2="230" y2="136" stroke="white" stroke-width="4" stroke-linecap="round"/>
    <line x1="259" y1="150" x2="252" y2="157" stroke="white" stroke-width="4" stroke-linecap="round"/>
    <line x1="259" y1="218" x2="252" y2="211" stroke="white" stroke-width="4" stroke-linecap="round"/>
    <line x1="234" y1="241" x2="230" y2="232" stroke="white" stroke-width="4" stroke-linecap="round"/>
    <line x1="166" y1="127" x2="170" y2="136" stroke="white" stroke-width="4" stroke-linecap="round"/>
    <line x1="141" y1="150" x2="148" y2="157" stroke="white" stroke-width="4" stroke-linecap="round"/>
    <line x1="141" y1="218" x2="148" y2="211" stroke="white" stroke-width="4" stroke-linecap="round"/>
    <line x1="166" y1="241" x2="170" y2="232" stroke="white" stroke-width="4" stroke-linecap="round"/>
    <line x1="200" y1="184" x2="200" y2="147" stroke="white" stroke-width="8" stroke-linecap="round"/>
    <line x1="200" y1="184" x2="200" y2="132" stroke="white" stroke-width="5" stroke-linecap="round"/>
    <line x1="200" y1="184" x2="226" y2="200" stroke="white" stroke-width="6" stroke-linecap="round" opacity="0.6"/>
    <circle cx="200" cy="184" r="8" fill="white"/>
    <circle cx="200" cy="184" r="4" fill="rgba(160,90,20,0.8)"/>
  </g>

  <!-- Banner -->
  <path d="M 65 306 A 164 164 0 0 0 335 306 L 341 352 A 172 172 0 0 1 59 352 Z" fill="#100400"/>
  <line x1="65" y1="306" x2="335" y2="306" stroke="url(#goldG_perfect_timing)" stroke-width="3.5"/>
  <path d="M 59 352 Q 200 366 341 352" fill="none" stroke="url(#goldG_perfect_timing)" stroke-width="3.5"/>
  <text x="200" y="334" text-anchor="middle" fill="url(#goldG_perfect_timing)"
        font-family="Arial Black,Impact,sans-serif"
        font-size="19" font-weight="900" letter-spacing="2">PERFECT TIMING</text>
</svg>