<svg width="200" height="200" viewBox="0 0 200 200" xmlns="http://www.w3.org/2000/svg">
  <defs>
    <radialGradient id="bg" cx="38%" cy="30%" r="65%">
      <stop offset="0%" stop-color="#F0A855"/>
      <stop offset="65%" stop-color="#BF6F2E"/>
      <stop offset="100%" stop-color="#7A3510"/>
    </radialGradient>
    <filter id="sh"><feDropShadow dx="0" dy="4" stdDeviation="5" flood-color="#00000070"/></filter>
    <clipPath id="cc"><circle cx="100" cy="100" r="82"/></clipPath>
  </defs>
  <circle cx="100" cy="103" r="93" fill="#170800" filter="url(#sh)"/>
  <circle cx="100" cy="100" r="93" fill="#170800"/>
  <circle cx="100" cy="100" r="90" fill="none" stroke="#FFD700" stroke-width="2.5"/>
  <circle cx="100.0" cy="9.5" r="2.2" fill="#FFD700"/>
  <circle cx="128.0" cy="13.9" r="2.2" fill="#FFD700"/>
  <circle cx="153.2" cy="26.8" r="2.2" fill="#FFD700"/>
  <circle cx="173.2" cy="46.8" r="2.2" fill="#FFD700"/>
  <circle cx="186.1" cy="72.0" r="2.2" fill="#FFD700"/>
  <circle cx="190.5" cy="100.0" r="2.2" fill="#FFD700"/>
  <circle cx="186.1" cy="128.0" r="2.2" fill="#FFD700"/>
  <circle cx="173.2" cy="153.2" r="2.2" fill="#FFD700"/>
  <circle cx="153.2" cy="173.2" r="2.2" fill="#FFD700"/>
  <circle cx="128.0" cy="186.1" r="2.2" fill="#FFD700"/>
  <circle cx="100.0" cy="190.5" r="2.2" fill="#FFD700"/>
  <circle cx="72.0" cy="186.1" r="2.2" fill="#FFD700"/>
  <circle cx="46.8" cy="173.2" r="2.2" fill="#FFD700"/>
  <circle cx="26.8" cy="153.2" r="2.2" fill="#FFD700"/>
  <circle cx="13.9" cy="128.0" r="2.2" fill="#FFD700"/>
  <circle cx="9.5" cy="100.0" r="2.2" fill="#FFD700"/>
  <circle cx="13.9" cy="72.0" r="2.2" fill="#FFD700"/>
  <circle cx="26.8" cy="46.8" r="2.2" fill="#FFD700"/>
  <circle cx="46.8" cy="26.8" r="2.2" fill="#FFD700"/>
  <circle cx="72.0" cy="13.9" r="2.2" fill="#FFD700"/>
  <circle cx="100" cy="100" r="83.5" fill="none" stroke="#FFD700" stroke-width="1.5"/>
  <circle cx="100" cy="100" r="82" fill="url(#bg)"/>
  <ellipse cx="86" cy="72" rx="32" ry="20" fill="rgba(255,255,255,0.13)" clip-path="url(#cc)"/>
  <g stroke-linecap="round" stroke-linejoin="round">

    <rect x="60" y="97" width="80" height="25" rx="6" fill="white"/>
    <path d="M 74 97 L 82 76 L 118 76 L 126 97 Z" fill="white"/>
    <rect x="83" y="79" width="15" height="14" rx="2" fill="#BF6F2E"/>
    <rect x="102" y="79" width="15" height="14" rx="2" fill="#BF6F2E"/>
    <circle cx="78" cy="124" r="11" fill="white"/>
    <circle cx="78" cy="124" r="5.5" fill="#BF6F2E"/>
    <circle cx="122" cy="124" r="11" fill="white"/>
    <circle cx="122" cy="124" r="5.5" fill="#BF6F2E"/>
    <rect x="58" y="108" width="84" height="4" rx="2" fill="rgba(255,255,255,0.4)"/>
  </g>
  <path d="M 22 150 A 81 81 0 0 0 178 150 L 181 173 A 85 85 0 0 1 19 173 Z" fill="#170800"/>
  <line x1="22" y1="150" x2="178" y2="150" stroke="#FFD700" stroke-width="1.5"/>
  <path d="M 19 173 Q 100 181 181 173" fill="none" stroke="#FFD700" stroke-width="1.5"/>
  <text x="100" y="163" text-anchor="middle" fill="#FFD700" font-family="Arial Black,Impact,sans-serif" font-size="11" font-weight="900" letter-spacing="0.8">ROAD WARRIOR</text>
</svg>