<svg width="400" height="400" viewBox="0 0 400 400" xmlns="http://www.w3.org/2000/svg">
  <defs>
    <radialGradient id="bgG_speed_demon" cx="36%" cy="28%" r="68%">
      <stop offset="0%" stop-color="#F5B060"/>
      <stop offset="35%" stop-color="#D07828"/>
      <stop offset="70%" stop-color="#8F4210"/>
      <stop offset="100%" stop-color="#4A1A04"/>
    </radialGradient>
    <radialGradient id="sheenG_speed_demon" cx="32%" cy="22%" r="62%">
      <stop offset="0%" stop-color="rgba(255,255,255,0.22)"/>
      <stop offset="100%" stop-color="rgba(255,255,255,0)"/>
    </radialGradient>
    <linearGradient id="goldG_speed_demon" x1="0%" y1="0%" x2="0%" y2="100%">
      <stop offset="0%" stop-color="#FFE87A"/>
      <stop offset="45%" stop-color="#FFD700"/>
      <stop offset="100%" stop-color="#A07808"/>
    </linearGradient>
    <filter id="shF_speed_demon" x="-25%" y="-25%" width="150%" height="150%">
      <feDropShadow dx="0" dy="10" stdDeviation="14" flood-color="#000000" flood-opacity="0.7"/>
    </filter>
    <filter id="innerGlow_speed_demon">
      <feGaussianBlur in="SourceGraphic" stdDeviation="3" result="blur"/>
      <feComposite in="SourceGraphic" in2="blur" operator="over"/>
    </filter>
    <clipPath id="ccG_speed_demon"><circle cx="200" cy="200" r="165"/></clipPath>
  </defs>

  <!-- Shadow -->
  <circle cx="200" cy="212" r="190" fill="#050200" filter="url(#shF_speed_demon)"/>
  <!-- Outermost dark ring -->
  <circle cx="200" cy="200" r="196" fill="#0A0300"/>
  <circle cx="200" cy="200" r="190" fill="#140600"/>
  <!-- Gold outer ring -->
  <circle cx="200" cy="200" r="182" fill="none" stroke="url(#goldG_speed_demon)" stroke-width="5.5"/>
  <!-- Dots -->
  <circle cx="200.0" cy="20.0" r="4.5" fill="url(#goldGspeed_demon)"/><circle cx="246.6" cy="26.1" r="4.5" fill="url(#goldGspeed_demon)"/><circle cx="290.0" cy="44.1" r="4.5" fill="url(#goldGspeed_demon)"/><circle cx="327.3" cy="72.7" r="4.5" fill="url(#goldGspeed_demon)"/><circle cx="355.9" cy="110.0" r="4.5" fill="url(#goldGspeed_demon)"/><circle cx="373.9" cy="153.4" r="4.5" fill="url(#goldGspeed_demon)"/><circle cx="380.0" cy="200.0" r="4.5" fill="url(#goldGspeed_demon)"/><circle cx="373.9" cy="246.6" r="4.5" fill="url(#goldGspeed_demon)"/><circle cx="355.9" cy="290.0" r="4.5" fill="url(#goldGspeed_demon)"/><circle cx="327.3" cy="327.3" r="4.5" fill="url(#goldGspeed_demon)"/><circle cx="290.0" cy="355.9" r="4.5" fill="url(#goldGspeed_demon)"/><circle cx="246.6" cy="373.9" r="4.5" fill="url(#goldGspeed_demon)"/><circle cx="200.0" cy="380.0" r="4.5" fill="url(#goldGspeed_demon)"/><circle cx="153.4" cy="373.9" r="4.5" fill="url(#goldGspeed_demon)"/><circle cx="110.0" cy="355.9" r="4.5" fill="url(#goldGspeed_demon)"/><circle cx="72.7" cy="327.3" r="4.5" fill="url(#goldGspeed_demon)"/><circle cx="44.1" cy="290.0" r="4.5" fill="url(#goldGspeed_demon)"/><circle cx="26.1" cy="246.6" r="4.5" fill="url(#goldGspeed_demon)"/><circle cx="20.0" cy="200.0" r="4.5" fill="url(#goldGspeed_demon)"/><circle cx="26.1" cy="153.4" r="4.5" fill="url(#goldGspeed_demon)"/><circle cx="44.1" cy="110.0" r="4.5" fill="url(#goldGspeed_demon)"/><circle cx="72.7" cy="72.7" r="4.5" fill="url(#goldGspeed_demon)"/><circle cx="110.0" cy="44.1" r="4.5" fill="url(#goldGspeed_demon)"/><circle cx="153.4" cy="26.1" r="4.5" fill="url(#goldGspeed_demon)"/>
  <!-- Inner gold ring -->
  <circle cx="200" cy="200" r="169" fill="none" stroke="url(#goldG_speed_demon)" stroke-width="2.5"/>
  <!-- Main badge fill -->
  <circle cx="200" cy="200" r="166" fill="url(#bgG_speed_demon)"/>
  <!-- Sheen overlay -->
  <circle cx="200" cy="200" r="166" fill="url(#sheenG_speed_demon)" clip-path="url(#ccG_speed_demon)"/>

  <!-- ── ICON ── -->
  
  <g stroke-linecap="round" stroke-linejoin="round">
    <line x1="136" y1="174" x2="168" y2="174" stroke="rgba(255,255,255,0.48)" stroke-width="4.5" stroke-linecap="round"/>
    <line x1="128" y1="192" x2="162" y2="192" stroke="rgba(255,255,255,0.52)" stroke-width="5" stroke-linecap="round"/>
    <line x1="136" y1="210" x2="168" y2="210" stroke="rgba(255,255,255,0.48)" stroke-width="4.5" stroke-linecap="round"/>
    <line x1="144" y1="157" x2="170" y2="157" stroke="rgba(255,255,255,0.3)" stroke-width="3.5" stroke-linecap="round"/>
    <line x1="144" y1="228" x2="170" y2="228" stroke="rgba(255,255,255,0.3)" stroke-width="3.5" stroke-linecap="round"/>
    <polygon points="226,128 190,198 216,198 178,264 236,190 206,190" fill="rgba(255,255,255,0.93)"/>
    <polygon points="220,145 200,194 212,194 194,240 228,198 212,198" fill="rgba(255,210,70,0.28)"/>
  </g>

  <!-- Banner -->
  <path d="M 65 306 A 164 164 0 0 0 335 306 L 341 352 A 172 172 0 0 1 59 352 Z" fill="#100400"/>
  <line x1="65" y1="306" x2="335" y2="306" stroke="url(#goldG_speed_demon)" stroke-width="3.5"/>
  <path d="M 59 352 Q 200 366 341 352" fill="none" stroke="url(#goldG_speed_demon)" stroke-width="3.5"/>
  <text x="200" y="334" text-anchor="middle" fill="url(#goldG_speed_demon)"
        font-family="Arial Black,Impact,sans-serif"
        font-size="19" font-weight="900" letter-spacing="2">SPEED DEMON</text>
</svg>